<svg width="2171" height="644" viewBox="0 0 2171 644" fill="none" xmlns="http://www.w3.org/2000/svg">
<g clip-path="url(#clip0_834_1890)">
<path fill-rule="evenodd" clip-rule="evenodd" d="M578.104 265.111C612.88 285.147 613.082 335.263 578.466 355.577L320.69 506.854H221.375C203.592 506.854 189.175 521.271 189.175 539.054V541.469V584.035V609.894C189.175 627.678 174.758 642.094 156.975 642.094H88.55C70.7665 642.094 56.35 627.678 56.35 609.894V577.476C56.0848 575.316 55.9475 573.104 55.9475 570.842V550.044L56.35 549.765V541.469C56.35 523.686 70.7665 509.269 88.55 509.269H120.28C121.905 509.017 123.554 508.889 125.212 508.889H156.975C174.758 508.889 189.175 494.473 189.175 476.69V473.849V423.255V409.449C189.175 391.666 203.592 377.249 221.375 377.249H288.304C306.035 377.188 320.39 362.796 320.39 345.049V276.624C320.39 258.841 305.973 244.424 288.19 244.424H219.765C201.982 244.424 187.565 258.841 187.565 276.624V332.503L186.76 335.889V342.634C186.76 360.418 172.343 374.834 154.56 374.834H152.172H152.06H114.329H114.216H87.745C69.9615 374.834 55.545 360.418 55.545 342.634V275.819C55.545 274.082 55.6826 272.376 55.9475 270.714V54.818C55.9475 14.5596 99.51 -10.618 134.393 9.47909L578.104 265.111Z" fill="url(#paint0_radial_834_1890)"/>
</g>
<path d="M1053.86 207.3V447H987.22V314.74L942 447H886.24L840.68 313.72V447H774.04V207.3H854.62L914.8 363.02L973.62 207.3H1053.86ZM1293.75 256.26V447H1226.77V419.8C1221.11 428.413 1213.29 435.44 1203.31 440.88C1193.34 446.093 1181.89 448.7 1168.97 448.7C1146.76 448.7 1129.19 441.447 1116.27 426.94C1103.58 412.207 1097.23 392.26 1097.23 367.1V256.26H1163.53V358.6C1163.53 369.48 1166.37 378.093 1172.03 384.44C1177.93 390.56 1185.63 393.62 1195.15 393.62C1204.9 393.62 1212.61 390.56 1218.27 384.44C1223.94 378.093 1226.77 369.48 1226.77 358.6V256.26H1293.75ZM1401.72 391.58H1482.98V447H1328.28V394.3L1404.1 311.68H1328.96V256.26H1480.26V308.96L1401.72 391.58ZM1551.26 238.58C1539.48 238.58 1529.96 235.407 1522.7 229.06C1515.68 222.487 1512.16 214.327 1512.16 204.58C1512.16 194.607 1515.68 186.333 1522.7 179.76C1529.96 173.187 1539.48 169.9 1551.26 169.9C1562.82 169.9 1572.12 173.187 1579.14 179.76C1586.4 186.333 1590.02 194.607 1590.02 204.58C1590.02 214.327 1586.4 222.487 1579.14 229.06C1572.12 235.407 1562.82 238.58 1551.26 238.58ZM1584.24 256.26V447H1517.6V256.26H1584.24ZM1748.33 447L1695.63 368.8V447H1628.99V195.4H1695.63V331.06L1748.33 256.26H1828.23L1753.09 352.14L1829.59 447H1748.33ZM1889.59 238.58C1877.8 238.58 1868.28 235.407 1861.03 229.06C1854 222.487 1850.49 214.327 1850.49 204.58C1850.49 194.607 1854 186.333 1861.03 179.76C1868.28 173.187 1877.8 169.9 1889.59 169.9C1901.15 169.9 1910.44 173.187 1917.47 179.76C1924.72 186.333 1928.35 194.607 1928.35 204.58C1928.35 214.327 1924.72 222.487 1917.47 229.06C1910.44 235.407 1901.15 238.58 1889.59 238.58ZM1922.57 256.26V447H1855.93V256.26H1922.57ZM2149.56 349.42C2149.56 354.633 2149.22 359.847 2148.54 365.06H2022.4C2023.08 375.487 2025.91 383.307 2030.9 388.52C2036.11 393.507 2042.69 396 2050.62 396C2061.73 396 2069.66 391.013 2074.42 381.04H2145.48C2142.53 394.187 2136.75 405.973 2128.14 416.4C2119.75 426.6 2109.1 434.647 2096.18 440.54C2083.26 446.433 2068.98 449.38 2053.34 449.38C2034.53 449.38 2017.75 445.413 2003.02 437.48C1988.51 429.547 1977.07 418.213 1968.68 403.48C1960.52 388.747 1956.44 371.407 1956.44 351.46C1956.44 331.513 1960.52 314.287 1968.68 299.78C1976.84 285.047 1988.17 273.713 2002.68 265.78C2017.41 257.847 2034.3 253.88 2053.34 253.88C2072.15 253.88 2088.81 257.733 2103.32 265.44C2117.83 273.147 2129.16 284.253 2137.32 298.76C2145.48 313.04 2149.56 329.927 2149.56 349.42ZM2081.56 332.76C2081.56 324.6 2078.84 318.253 2073.4 313.72C2067.96 308.96 2061.16 306.58 2053 306.58C2044.84 306.58 2038.15 308.847 2032.94 313.38C2027.73 317.687 2024.33 324.147 2022.74 332.76H2081.56Z" fill="#453247"/>
<defs>
<radialGradient id="paint0_radial_834_1890" cx="0" cy="0" r="1" gradientUnits="userSpaceOnUse" gradientTransform="translate(329.926 322.255) scale(274.381 319.84)">
<stop stop-color="#B3BDFD"/>
<stop offset="0.5" stop-color="#EEB4CD"/>
<stop offset="1" stop-color="#E887FB"/>
</radialGradient>
<clipPath id="clip0_834_1890">
<rect width="644" height="644" fill="white"/>
</clipPath>
</defs>
</svg>
